<svg id="Layer_1" data-name="Layer 1" xmlns="http://www.w3.org/2000/svg" viewBox="0 0 329.85 140.34"><defs><style>.cls-1{fill:#606060;}</style></defs><title>438_RGB Logo</title><path class="cls-1" d="M252.87,96.33c.27-5.18,3-14.44,17.13-14.5s16.86,9.31,17.13,14.5c-.27,6.19-3.73,13.7-17.13,14.2-13.41-.5-16.86-8-17.13-14.2M35.24,82.61,59.89,49.49V82.61Zm220.1-42.36c.27-2.74.27-10.4,14.51-10.94h.31c14.24.55,14.24,8.21,14.51,10.94-.27,4.65-2.74,11.22-14.24,11.22l-.43,0-.43,0c-11.5,0-14-6.57-14.24-11.22M239.72,4.65C224.54,10.86,219,21.71,217,29.78c-2-8.07-7.53-18.91-22.7-25.13C185.58,1.11,175.76,0,164,0s-21.54,1.11-30.28,4.65c-18.54,7.59-22.44,23.27-23.58,30-.54,3.16-1,8.34-1.23,11.67a3,3,0,0,0,2.95,3.17h33a2.92,2.92,0,0,0,2.93-2.79c.12-2.81.59-7.15,2.2-10.23s4.17-6.83,13.86-7.2h.31c14.24.55,14.24,8.21,14.51,10.94-.27,4.58-2.66,11-13.72,11.21h-4.85a2.93,2.93,0,0,0-2.93,2.93v24.5a2.93,2.93,0,0,0,2.93,2.93h4.5c13.61.31,16.26,9.39,16.53,14.5-.27,6.19-3.73,13.7-17.13,14.2-13.27-.5-16.64-7.86-17.12-14a78.15,78.15,0,0,1-.22-10.76,2.94,2.94,0,0,0-2.94-3.11h-42V6.75a2.93,2.93,0,0,0-2.93-2.93H60.2A2.93,2.93,0,0,0,57.85,5L.58,81.87A2.93,2.93,0,0,0,0,83.62V110A2.93,2.93,0,0,0,2.93,113h57v20.8a2.93,2.93,0,0,0,2.93,2.93H99.13a2.93,2.93,0,0,0,2.93-2.93V113.25h5.5a41.81,41.81,0,0,0,7.3,11.22C130.69,140,154.11,140.33,164,140.34s33.35-.33,49.17-15.87A43.87,43.87,0,0,0,217,119.6a43.78,43.78,0,0,0,3.81,4.87C236.65,140,260.08,140.33,270,140.34s33.35-.33,49.17-15.87a40.44,40.44,0,0,0,10.68-27.63c0-10.12-3.56-19.42-9.58-24.89a24.64,24.64,0,0,0-9-6.29c5.75-4.1,13.14-11.76,12.87-26.81,0-5.2-1.1-24.89-23.82-34.19C291.54,1.11,281.72,0,270,0s-21.54,1.11-30.28,4.65M221.92,70.38a29.1,29.1,0,0,0-4.9,6.47,29.67,29.67,0,0,0-11.36-11.36A29.67,29.67,0,0,0,217,54.11a29.67,29.67,0,0,0,11.36,11.36A29.1,29.1,0,0,0,221.92,70.38Z"/></svg>