<svg id="Layer_1" data-name="Layer 1" xmlns="http://www.w3.org/2000/svg" viewBox="0 0 294.8 294.8"><defs><style>.cls-1{fill:#fff;}.cls-2{fill:#25428d;}</style></defs><title>tmc</title><g id="Layer_3" data-name="Layer 3"><path class="cls-1" d="M147.4,0C66.1,0,0,66.1,0,147.4S66.1,294.8,147.4,294.8s147.4-66.1,147.4-147.4S228.7,0,147.4,0Z"/><path class="cls-2" d="M147.4,5.7C69.3,5.7,5.7,69.3,5.7,147.4S69.3,289.1,147.4,289.1s141.7-63.6,141.7-141.7S225.6,5.7,147.4,5.7Z"/><path class="cls-1" d="M70.5,117.2Z"/><path class="cls-1" d="M191.8,147.4a44.4,44.4,0,1,0-44.4,44.4A44.43,44.43,0,0,0,191.8,147.4Z"/><rect class="cls-1" x="25.6" y="177.19" width="15.4" height="2.7" transform="translate(-45.72 15.01) rotate(-15.22)"/><polygon class="cls-1" points="46.1 192.1 35.4 196.4 35.4 196.3 43.5 185.4 42.1 182 27.8 187.7 28.8 190.3 39.9 185.9 39.9 185.9 31.5 197.1 32.8 200.3 47.1 194.6 46.1 192.1"/><path class="cls-1" d="M51.6,202.7,48.8,198l-13.2,7.9,2.8,4.7c2.1,3.5,6.3,6.1,11,3.4C54.3,211,53.7,206.2,51.6,202.7Zm-3.8,8.7c-3.6,2.1-6.2,0-7.6-2.5l-1.2-2,9.2-5.4,1.2,2C50.8,206,51.6,209.2,47.8,211.4Z"/><path class="cls-1" d="M62.8,218.1c-3-3.6-7.7-4.3-11.5-1.2a7.78,7.78,0,0,0-.9,11.5A7.91,7.91,0,0,0,62,229.5C65.8,226.4,65.9,221.7,62.8,218.1Zm-2.7,9.2c-2.5,2.1-5.7,2-7.8-.4s-1.6-5.6,1-7.7c2.4-2,5.7-2,7.7.4S62.5,225.3,60.1,227.3Z"/><path class="cls-1" d="M67,241.7c-2.4-2.1-2.4-5.2-.2-7.7a5.26,5.26,0,0,1,7.7-.7,4.47,4.47,0,0,1,1.6,3.5l2.7.1c.1-2-1.2-4.1-2.7-5.5-3.6-3.1-8.3-3.2-11.6.6a7.78,7.78,0,0,0,.8,11.5,7.35,7.35,0,0,0,6.3,1.9l-.6-2.6A4.22,4.22,0,0,1,67,241.7Z"/><rect class="cls-1" x="71.63" y="242.81" width="15.4" height="2.7" transform="translate(-165.95 168.34) rotate(-54.82)"/><polygon class="cls-1" points="88.7 241.2 80.9 254.5 89 259.2 90.2 257.1 84.5 253.8 91 242.6 88.7 241.2"/><rect class="cls-1" x="89.78" y="253.28" width="15.4" height="2.7" transform="translate(-174.48 235.16) rotate(-64.96)"/><path class="cls-1" d="M111,251.5c-2.6-.9-5.8-.6-6.8,2.4-1,2.7.6,4.2,2.2,5.4s3,2.2,2.4,3.7a2.4,2.4,0,0,1-3.4,1.2,4.62,4.62,0,0,1-2.6-2.7l-2.5,1.1a6.87,6.87,0,0,0,4.2,3.8c2.9,1,5.8.4,6.9-2.7,1-2.8-1.1-4.5-2.7-5.8-1.5-1.1-2.4-1.9-2-3.2s2.1-1.5,3.3-1.1a4,4,0,0,1,2.2,2.2l2.3-1.2A5.43,5.43,0,0,0,111,251.5Z"/><path class="cls-1" d="M130.3,256.7l-5-.8-2.4,15.2,2.7.4,1-6.3,2.1.3c3.2.5,6.1-.2,6.6-3.6C135.9,258.8,133.8,257.2,130.3,256.7Zm2.4,4.8c-.3,1.8-2,2-3.7,1.7l-2-.2.7-4.4,2,.3C131.4,259.2,132.9,259.7,132.7,261.5Z"/><path class="cls-1" d="M150.2,262.5c.1-3.3-2.7-4.5-5.6-4.6l-5.3-.1-.4,15.4,2.7.1.2-6.5,2,.1,3.4,6.6,3.3.1-3.9-6.9A4.38,4.38,0,0,0,150.2,262.5Zm-8.4,2,.1-4.3,2.5.1c1.4,0,3.1.5,3,2.2,0,1.9-1.8,2.2-3.4,2.2Z"/><rect class="cls-1" x="154.55" y="257.73" width="2.7" height="15.4" transform="translate(-18.59 11.83) rotate(-4.1)"/><polygon class="cls-1" points="168.6 268 168.6 268 162.3 257.1 159.3 257.6 168 271.7 170.3 271.3 173.7 255.1 170.8 255.6 168.6 268"/><path class="cls-1" d="M179.8,253.2l-1.7,16.7,2.9-.9.3-3.8,6.4-2,2.4,2.9,3-.9-11-12.7Zm1.6,9.5.4-6.7,4.2,5.3Z"/><polygon class="cls-1" points="199.9 247.7 198.9 245.5 187.8 250.6 188.8 252.7 193.1 250.8 198.5 262.6 201 261.5 195.6 249.6 199.9 247.7"/><path class="cls-1" d="M204.2,242.3l2.3,16.6,2.6-1.6-.7-3.7,5.7-3.5,3.1,2.3,2.7-1.6-13.7-9.7Zm7.9,6.4-4.1,2.5-1.2-6.6Z"/><polygon class="cls-1" points="229.4 239.8 220.7 230.2 218.7 232.1 229 243.5 235.9 237.2 234.3 235.4 229.4 239.8"/><path class="cls-1" d="M243.1,217.5c-3.8-3.2-8.4-2.5-11.5,1.1s-3,8.3.8,11.5a7.86,7.86,0,0,0,11.5-1C247,225.4,246.7,220.6,243.1,217.5Zm-1.1,10c-2,2.4-5.2,2.5-7.7.4s-2.9-5.3-.9-7.7a5.24,5.24,0,0,1,7.7-.4C243.6,221.9,244.1,225.1,242,227.5Z"/><path class="cls-1" d="M256.8,205.7h0a7.18,7.18,0,0,0-3.5-5.3c-4-2.4-8.6-1-11,3s-1.4,8.7,2.6,11.1c4.3,2.5,8.5,1.2,11-3l4.7-8-1.9-1.1Zm-3,4.7a5.07,5.07,0,0,1-7.4,1.7,5.23,5.23,0,0,1-2-7.3,5.48,5.48,0,0,1,9.4,5.6Z"/><path class="cls-1" d="M261.7,185.7l-9.1-3.6-1,2.6,9,3.5c1.7.7,3.1,2.1,2.2,4.6s-3,2.5-4.7,1.9l-9-3.5-1,2.6,9.1,3.6c3.5,1.4,6.6-.3,7.9-3.6S265.2,187,261.7,185.7Z"/><rect class="cls-1" x="260.21" y="171.04" width="2.7" height="15.4" transform="translate(20.11 383.83) rotate(-74.69)"/><polygon class="cls-1" points="42.6 142.6 20.1 142.1 20.2 133.9 16.1 133.8 15.6 154.9 19.8 155 20 146.8 42.5 147.4 42.6 142.6"/><polygon class="cls-1" points="44.1 127.7 32.7 124.8 35.7 112.8 47.2 115.6 48.4 111 22.5 104.5 21.4 109.1 31.8 111.8 28.7 123.8 18.3 121.2 17.2 125.8 43 132.3 44.1 127.7"/><polygon class="cls-1" points="59 90.1 55.3 88.1 48.9 100.1 42.3 96.6 48 85.8 44.4 84 38.8 94.8 32.8 91.6 38.8 80.2 35.1 78.3 26.9 93.9 50.5 106.3 59 90.1"/><polygon class="cls-1" points="70.7 75.2 56.5 59.1 56.6 59.1 76.7 69.9 79.2 67.7 71.1 46.3 71.2 46.2 85.3 62.3 88.9 59.2 71.2 39.2 65.7 44.1 73 62.8 72.9 62.9 55.2 53.3 49.7 58.2 67.3 78.2 70.7 75.2"/><path class="cls-1" d="M95.5,55.8l-.4-6.5,10.5-4.9,4.8,4.5,4.9-2.3L93.7,27.3,89.9,29l.8,29.1Zm6.9-14.4-7.5,3.5-.8-11.6Z"/><path class="cls-1" d="M129.6,44.7a22.51,22.51,0,0,0,9.5-3.9l-2.6-13.6-10,1.9.7,3.8,5.5-1,1.3,6.7a14.88,14.88,0,0,1-5,1.9c-5.8,1.1-10.1-2.3-11.1-7.9-1-5.4,1.8-10.3,7.3-11.3a9.74,9.74,0,0,1,7.2,1.4l2.6-4.1c-2.5-1.6-6.4-2.2-10.6-1.4-8.1,1.5-13.2,8-11.6,16.4C114.2,41.7,121.2,46.3,129.6,44.7Z"/><path class="cls-1" d="M168.7,45.3a12.6,12.6,0,0,0,11-2.8l-3.3-3.3a7.79,7.79,0,0,1-6.9,1.9c-5.4-1-8.2-5.6-7.1-11.3,1-5.4,5.4-8.9,10.8-8a7.65,7.65,0,0,1,5.5,3.8l4.1-2.2c-1.6-3.1-5.4-5.1-8.8-5.7-8.1-1.5-15.2,2.7-16.7,11.1S160.5,43.9,168.7,45.3Z"/><path class="cls-1" d="M202.8,59.1a12.49,12.49,0,0,0,11.3,1.2l-1.9-4.2a7.87,7.87,0,0,1-7.1-.6c-4.7-2.8-5.7-8.1-2.8-13.1,2.8-4.7,8.2-6.5,12.9-3.7a7.63,7.63,0,0,1,3.8,5.5l4.6-.6c-.4-3.5-3.3-6.7-6.3-8.4-7.1-4.2-15.2-2.7-19.5,4.6C193.5,46.9,195.6,54.8,202.8,59.1Z"/><rect class="cls-1" x="211.39" y="55.55" width="26.6" height="4.7" transform="translate(34.01 190.11) rotate(-49.18)"/><path class="cls-1" d="M225.6,77.4l8.7-7.2,2.2,2.7-4.8,11.9,3.6,4.4,4.6-13c3,2.3,6.5,2.6,9.4.1,4.3-3.6,2.8-8.6-.4-12.4L243,56.8l-20.5,17ZM243.1,63l2.7,3.3c1.6,1.9,2.8,4.5.6,6.4-2.5,2.1-4.9.1-6.6-1.9l-2.5-3Z"/><path class="cls-1" d="M242.1,103.8a12.77,12.77,0,0,0,8.8,7.2l.7-4.6A7.68,7.68,0,0,1,246,102c-2.4-4.9-.4-9.9,4.8-12.5,4.9-2.4,10.4-1,12.8,3.9a7.51,7.51,0,0,1,.2,6.7l4.2,2c1.6-3.1.9-7.4-.6-10.5-3.6-7.4-11.2-10.6-18.9-6.8C241,88.5,238.4,96.3,242.1,103.8Z"/><polygon class="cls-1" points="251.5 131.3 255.6 130.2 252.9 119.3 274.7 113.9 273.5 109.3 247.6 115.7 251.5 131.3"/><polygon class="cls-1" points="278.6 134.3 252 135.2 252.6 153.5 256.8 153.4 256.3 139.8 263.9 139.5 264.3 151.8 268.3 151.6 267.8 139.4 274.6 139.2 275.1 152.1 279.2 151.9 278.6 134.3"/><path class="cls-1" d="M76.6,141.7a2.38,2.38,0,0,0,1.4.6,2.24,2.24,0,0,0,1.5-.8,3.17,3.17,0,0,0,.9-2.3,2.58,2.58,0,0,0-.9-2.1,2.45,2.45,0,0,0-1.6-.6,2.24,2.24,0,0,0-1.8,1A3,3,0,0,0,76.6,141.7Z"/><path class="cls-1" d="M51,147.4a96,96,0,0,0,2.9,23.3l44.6-12a50.63,50.63,0,0,1,0-22.8l-44.6-12A98.82,98.82,0,0,0,51,147.4Zm8.3-.2a4,4,0,0,1,1.5-1,6.39,6.39,0,0,1,2.2-.6c.8-.1,1.6-.2,2.6-.3,1.8-.1,3.8-.2,5.7-.4,1-.1,2-.3,3-.5a7.39,7.39,0,0,1-2.1-2.8,5.73,5.73,0,0,1-.3-3.7,5.38,5.38,0,0,1,2.7-3.9,6.55,6.55,0,0,1,3.5-1,6,6,0,0,1,5.4,3.2,5.2,5.2,0,0,1,.1,5,10.6,10.6,0,0,1-1.1,2.1c-.2.3-.4.5-.6.8a11.07,11.07,0,0,1,2.6.7,8.75,8.75,0,0,1,2.8,1.7,7.07,7.07,0,0,1,2,3.7c0,.1.1.3.1.4v.2c0,.1.1.8.1,1.1v1.3a1.08,1.08,0,0,1-.2.8,1.14,1.14,0,0,1-.8.3c-.6,0-1.3.1-1.9.1h-.7c-.2-.1-.5-.3-.5-.6v-.5a8.68,8.68,0,0,0-.1-2.3,4.18,4.18,0,0,0-1.9-2.6,7.54,7.54,0,0,0-2.9-.9,13.5,13.5,0,0,0-4.3.4q-1.65.3-3.6.6c-.4,0-.7.1-1.1.1h-.1c-.4,0-.9.1-1.3.1a19.48,19.48,0,0,1-2.5.2,22,22,0,0,0-3.7.6c-.2.1-.4.1-.5.2.1.2.3.3.5.5a9.91,9.91,0,0,0,1.7,1.1,11.73,11.73,0,0,0,3.6,1.3,35.48,35.48,0,0,0,4,.6,14.77,14.77,0,0,0,2.1.1,14.16,14.16,0,0,0,1.9-.1h.4a.85.85,0,0,1,.8.7v3.5a.68.68,0,0,1-.7.7h-.4c-.5,0-1.1-.1-1.7-.1a34.92,34.92,0,0,0-3.5.2,19.42,19.42,0,0,1-2.4.2h-.2a12.4,12.4,0,0,0-4.5,1.4,8.79,8.79,0,0,0-1,.6,2,2,0,0,0-.8,2.2v.3l.1.4-.1.2a.93.93,0,0,1-.7.4h-.7a8.6,8.6,0,0,0-1.6.1h-.1c-.7,0-.8-.5-.9-.8a4.94,4.94,0,0,1,1.4-5,7,7,0,0,1,1.9-1.3,13.05,13.05,0,0,1,3.8-1.3.37.37,0,0,0,.3-.1,6.47,6.47,0,0,1-1.3-.4,16.11,16.11,0,0,1-3.2-1.4,9.3,9.3,0,0,1-2.3-2.1,5,5,0,0,1-.8-1.4A2.1,2.1,0,0,1,59.3,147.2Z"/><path class="cls-1" d="M80.4,78.1,113,110.7a50.73,50.73,0,0,1,19.7-11.4l-12-44.6A97.73,97.73,0,0,0,80.4,78.1Zm40.7,1.4c-.1.1-.2.1-.3.2l-4.5,2.6h0a17,17,0,0,0,3.2,3.4,28.3,28.3,0,0,0,5.2,3.7c.3.2.6.3.9.5l.1.1c.3.1.5.3.8.4l.2.1.1.2a.76.76,0,0,1-.3.9l-.7.4c-.4.3-.9.5-1.3.8a1.67,1.67,0,0,1-1.2.1h-.1l-.6-.3a31,31,0,0,1-6.2-4.3,22.32,22.32,0,0,1-3.5-4L110,86c.1.2.2.3.2.5a21.35,21.35,0,0,1,1.7,5.9,25.4,25.4,0,0,1,.3,5.5,6.15,6.15,0,0,1-.1,1.4,1.22,1.22,0,0,1-.6,1,9.13,9.13,0,0,0-1.3.8l-1,.6-.3-.1a.57.57,0,0,1-.4-.7V99.2a27.91,27.91,0,0,0-1.5-10c-.1-.3-.3-.7-.4-1l-.1-.1c-1.5.9-3,1.7-4.5,2.6-.3.1-.4.2-.7.3s-.6-.3-.8-.6l-1.2-1.8A1.63,1.63,0,0,1,99,88v-.2l.1-.2a1.33,1.33,0,0,1,.6-.5h.1l4.4-2.5-.1-.1a14.54,14.54,0,0,0-2.9-2.5,44.49,44.49,0,0,0-7.8-4.2h-.1c-.2-.1-.4-.1-.6-.3l-.4-.4.3-.4q0-.15.3-.3l1.2-.7c.4-.2.7-.4,1.1-.6a1.29,1.29,0,0,1,1.2-.1,29.16,29.16,0,0,1,9.3,5.6c.7.7,1.4,1.4,2,2.1a33.71,33.71,0,0,0,3.2-1.9,16.82,16.82,0,0,1-1.1-4,25.22,25.22,0,0,1-.2-7.3,5.85,5.85,0,0,1,.2-1.3V68c0-.2.1-.4.1-.6a1.64,1.64,0,0,1,.7-1.1c.5-.3,1.1-.6,1.6-.9l.8-.4a.37.37,0,0,1,.3-.1h.5l.2.4a2.13,2.13,0,0,1,0,.8v.1a44,44,0,0,0-.4,8.1,23.87,23.87,0,0,0,.7,4.4c0,.1.1.2.1.3l4.4-2.5a.76.76,0,0,1,.4-.2.37.37,0,0,1,.3-.1h0a.74.74,0,0,1,.7.4.1.1,0,0,0,.1.1l.5,1.1a9.74,9.74,0,0,1,.5,1.1C121.6,78.9,121.5,79.3,121.1,79.5Z"/><path class="cls-1" d="M54.7,120.8l44.6,12a50.73,50.73,0,0,1,11.4-19.7L78.1,80.4A97.45,97.45,0,0,0,54.7,120.8Zm31.5-20.4.1-.6.6.1,1.9.3c1.4.3,2.8.6,4.3.9l.2.1c.4.1.8.2,1.1.3a.94.94,0,0,1,.8.8l.1.8a5.85,5.85,0,0,1,.2,1.3l.1.6-.5.2a1.38,1.38,0,0,1-.9,0h-.1c-1.4-.3-2.7-.6-4-.8.4,2.1.8,4.2,1.3,6.3v.1c0,.1,0,.2.1.2s.1.5-.1.7a.6.6,0,0,1-.6.3h-.3c-1.5-.2-2.8-.3-4.2-.5.4,1.8.8,3.6,1.3,5.3l.1.5a.76.76,0,0,1-.1.7.85.85,0,0,1-.6.3h-.5c-1.4-.1-2.9-.1-4.3-.2h0v.1c0,.1.1.3.1.4l.3.9.3.9.3.9c.1.4.3.9.4,1.3l.7,2-.8.2c-.2,0-.5.1-1,.1H80.4l-.2-.4c-.2-.5-2.6-8.8-2.7-9.3l-.1-.7h.7c1.3,0,2.6,0,3.8.1h1.3c-.4-1.9-.8-3.8-1.2-5.8v-.1a1,1,0,0,1,.1-.9.71.71,0,0,1,.6-.3h.5c1.5.1,2.8.3,4,.4-.4-2.2-.8-4.5-1.2-6.7v-.1C86.2,101,86.1,100.7,86.2,100.4Zm-1.1-6.7.2.3c0,.1.1.2.1.3l.3,2.3a.66.66,0,0,1-.2.7.6.6,0,0,1-.6.3l-.7-.1c-1.5-.2-2.9-.4-4.1-.6.3,2.8.7,5.5,1.1,7.8l.1.5-.5.2a2,2,0,0,1-.8.1h-.1c-1.5-.1-2.9-.2-4.1-.3.1.7.2,1.4.3,2,.2,1.4.5,2.8.7,4.1a.76.76,0,0,0,.1.4l.1.6-.3.3a1.22,1.22,0,0,1-.9.3H71.1c.4,2.1.9,4.2,1.4,6.3v.1a.77.77,0,0,1-.1.9,1.25,1.25,0,0,1-1.1.4,2,2,0,0,0-.8.1l-.9.1h-.1a.8.8,0,0,1-.9-.7.37.37,0,0,0-.1-.3v-.2c-.7-2.9-1.3-5.9-1.9-9,0-.2-.1-.3-.1-.5a1,1,0,0,1,.7-.9h.5c1.6,0,3.1-.1,4.7-.1-.4-2.2-.7-4.3-.9-6.2v-.6a1,1,0,0,1,.2-.7.86.86,0,0,1,.6-.3h.6c1.3.1,2.7.1,4.1.2L76.1,94v-.4L76,92.5h1q4,.45,7.8,1.2Z"/><path class="cls-1" d="M205,116.8h0c3.3-1.8,6.4-3.7,9.6-5.5,2.1-1.2,4.3-2.4,6.4-3.7l.1-.1h0c-.8-1.3-1.6-2.7-2.4-4.1h-.1l-7.8,4.8L203,113l-.1.1h-.1l.8,1.3C204.1,115.2,204.6,116,205,116.8Z"/><path class="cls-1" d="M240.1,120.8a96.63,96.63,0,0,0-23.3-40.4L184.2,113a50.73,50.73,0,0,1,11.4,19.7ZM195,108.9a.72.72,0,0,1,.2-1.1l.4-.3,1.1-.8a1.07,1.07,0,0,1,.6-.2.85.85,0,0,1,.6.3,7.3,7.3,0,0,1,.9,1c.7.8,1.3,1.6,2,2.4l.1-.1c5.9-3.7,11.1-7,15.9-10.1a.1.1,0,0,0,.1-.1l-.1-.1c-.1-.2-.2-.5-.3-.7l-.3-.8c-.2-.4-.3-.9-.5-1.3s-.3-.7-.4-1.1a1.45,1.45,0,0,1-.2-.7.82.82,0,0,1,.4-1h.1c.1,0,.1-.1.2-.1l.3-.2c.4-.2.8-.5,1.2-.7a.76.76,0,0,1,.5-.2.79.79,0,0,1,.7.5l.3.6c.3.6.5,1.1.8,1.6l.2.5c.3.5.5,1.1.8,1.6s.7,1.3,1,1.9a21.16,21.16,0,0,1,1.1,2.1,40.22,40.22,0,0,0,2.2,3.8,46.22,46.22,0,0,0,2.7,4c.5.7,1,1.4,1.4,1.9l.1.2.6.9c.1.1.1.1.1.2l.2.5-.4.3-.2.2c-.6.3-1.3.7-2,1a.9.9,0,0,1-.5.1.72.72,0,0,1-.7-.4c-.8-1-1.6-2-2.3-3-.2-.3-.5-.6-.7-.9h-.1l-.1.1c-5.4,3-10.9,6.1-16.3,9.1l-.1.1v.1c.4.8.7,1.7,1,2.4l.2.6c.1.2.1.3.2.5l.1.3c0,.1,0,.1.1.2a.73.73,0,0,1-.4,1c-.6.3-1.3.7-2,1-.1.1-.2.1-.4.1a.71.71,0,0,1-.7-.5l-.3-.6-.4-.9c-.1-.3-.3-.6-.4-.9a8.26,8.26,0,0,0-.7-1.3l-.1-.2c-.1-.2-.3-.5-.4-.7a63.17,63.17,0,0,0-3.3-5.6l-.1-.1c-.4-.7-.9-1.4-1.3-2l-.5-.8c-.4-.6-.9-1.2-1.3-1.9a7,7,0,0,0-.8-1l-.4-.5C195.1,109.1,195,109,195,108.9Z"/><path class="cls-1" d="M113.1,184.1,80.5,216.7a96.83,96.83,0,0,0,40.4,23.4l12-44.6A50.4,50.4,0,0,1,113.1,184.1Zm12.6,25.3-1.5,3.6-2.6,6c-.5,1.3-1.1,2.5-1.6,3.8s-1.2,2.9-1.9,4.3a2.24,2.24,0,0,0-.3,1c0,.2-.1.4,0,.5a.55.55,0,0,0,.4.6l.8.2-1.3,2.9h-.4a3.61,3.61,0,0,1-3.2-3,3.3,3.3,0,0,1,0-1.4.9.9,0,0,1,.1-.5,8.34,8.34,0,0,1-1.2.8,6.39,6.39,0,0,1-1.6.6,3.79,3.79,0,0,1-1.5,0,3.09,3.09,0,0,1-1.9-1.5,3.31,3.31,0,0,1-.4-1.5v-1.4a8,8,0,0,1-2.3,1,1.48,1.48,0,0,1-.7.1h-.4a2.67,2.67,0,0,1-2.6-1.8,3.6,3.6,0,0,1,0-3.2,27.18,27.18,0,0,1,1.1-2.5c.7-1.4,1.5-2.9,2.4-4.4,1-1.8,2.1-3.7,3.3-6,.3-.6.7-1.2,1-1.8l.3-.5a18.69,18.69,0,0,0,1.2-2.5l.3-.9a2.37,2.37,0,0,0-.9-2.7,7.46,7.46,0,0,0-1.2-.7H109c-.1,0-.1-.1-.2-.1a.76.76,0,0,1-.4-.2.1.1,0,0,1-.1-.1.31.31,0,0,0-.1.2c-.1.1-.1.2-.2.3s-.3.4-.4.6l-.3.5c-.1.1-.2.4-.5.4h-.2a.79.79,0,0,1-.5-.7v-.1c-.3-1.5-.7-3.2-1.1-5a.73.73,0,0,1,.2-.6,2.09,2.09,0,0,1,.6-.4c1.5-.4,3.1-.9,4.7-1.4h.1c.1,0,.2-.1.3-.1a.75.75,0,0,1,.5.1c.2.1.3.4.1.8l-.9,1.5a.1.1,0,0,1,.1.1,14.19,14.19,0,0,1,1.8,1.1,6.69,6.69,0,0,1,2,2.1,5.07,5.07,0,0,1,.7,3.3,10.91,10.91,0,0,1-.8,3.1c-.3.8-.8,1.7-1.3,2.7-.7,1.3-1.4,2.6-1.9,3.6s-.9,1.8-1.4,2.7v.1c-.2.4-.5.9-.7,1.3l-3.6,6.9a7.53,7.53,0,0,0,3-1.7,12.27,12.27,0,0,0,2.2-2.7c.8-1.2,1.4-2.5,2-3.6.7-1.3,1.4-2.7,2-4s1.3-2.6,2-3.8l.3-.6.1-.2c.1-.1.1-.3.2-.4.2-.4.4-.5.7-.5s.3.1.4.1c.7.4,1.3.7,1.9,1.1s.5.7.3,1.1c-.5.9-.9,1.9-1.4,2.8l-1.8,3.7c-.6,1.3-1.2,2.5-1.9,3.8-1.3,2.7-2.6,5.4-4,8.2a10.09,10.09,0,0,0,1.5-.7,8.77,8.77,0,0,0,2.6-2.5,19.76,19.76,0,0,0,1.8-3c1.3-2.7,2.6-5.6,3.9-8.3l.3-.6c.3-.6.5-1.1.8-1.7l.2-.5a.35.35,0,0,1,.1-.2.62.62,0,0,1,.6-.4.37.37,0,0,1,.3.1c.1,0,.2.1.3.1a9.5,9.5,0,0,1,1.7,1c.1,0,.1.1.2.1l.3.3-.2.5A4.07,4.07,0,0,0,125.7,209.4Z"/><path class="cls-1" d="M243.8,147.4a96,96,0,0,0-2.9-23.3l-44.6,12a50.63,50.63,0,0,1,0,22.8l44.6,12A98.82,98.82,0,0,0,243.8,147.4ZM226.7,159a5.78,5.78,0,0,1-4.4,2.4h-.7a8,8,0,0,1-4.8-1.7,13.23,13.23,0,0,1-4.4-6.1,15.51,15.51,0,0,1-1-7,16.19,16.19,0,0,1,.8-3.8,32.77,32.77,0,0,1,2.2-5c.2-.3.3-.6.5-.9s.5-.9.7-1.3a1.44,1.44,0,0,1,1.3-.8h1.8a.81.81,0,0,1,.8.4.72.72,0,0,1,0,.8c-.2.4-.4.7-.6,1.1l-.6,1.1a27.29,27.29,0,0,0-2.2,5.3,14.62,14.62,0,0,0-.8,4.3,10.92,10.92,0,0,0,.8,4.6,6.78,6.78,0,0,1,5.8-2.2,6.49,6.49,0,0,1,5.8,4.5A7.22,7.22,0,0,1,226.7,159Zm8.8-4.8a34.16,34.16,0,0,1-2,5.5,11.94,11.94,0,0,1-.8,1.6l-.6,1.2a1.2,1.2,0,0,1-1,.7h-.2c-.5-.1-1-.1-1.5-.2l-1-.1-.1-.4a1,1,0,0,1,.2-1v-.1a29.57,29.57,0,0,0,1.6-3.5,31.74,31.74,0,0,0,1.8-5.5,19.89,19.89,0,0,0,.5-4.9,16.31,16.31,0,0,0-.8-4.5,6.82,6.82,0,0,1-3.9,2.5,8.75,8.75,0,0,1-1.6.2,6.19,6.19,0,0,1-6.1-4.3,5.83,5.83,0,0,1,.6-4.8,7,7,0,0,1,4.8-3.3,5.89,5.89,0,0,1,5.6,1.4,14.8,14.8,0,0,1,3.1,4.1,20.76,20.76,0,0,1,1.6,4.6,26.44,26.44,0,0,1,.6,5.5A22,22,0,0,1,235.5,154.2Z"/><path class="cls-1" d="M221,153.2h0a3.84,3.84,0,0,0-2.2.7,2.09,2.09,0,0,0-.8,1.6c0,1.4,1.4,2.5,3,2.6h.2a2.6,2.6,0,0,0,2.8-2.4A2.88,2.88,0,0,0,221,153.2Z"/><path class="cls-1" d="M226.7,136.7h-.2a3.07,3.07,0,0,0-3,3,2.69,2.69,0,0,0,2.8,2.6h.1a3.06,3.06,0,0,0,3-2.9,2.41,2.41,0,0,0-.7-1.8A2.48,2.48,0,0,0,226.7,136.7Z"/><path class="cls-1" d="M124.1,53.9l12,44.6a51.6,51.6,0,0,1,22.8,0l12-44.6A97.49,97.49,0,0,0,124.1,53.9Zm23.5,17c.1-.7.3-1.4.4-2.1a18.85,18.85,0,0,1,1.2-3.8,11,11,0,0,1,1.9-3,8,8,0,0,1,4.4-2.5c.2,0,.6-.1.8-.1a4.48,4.48,0,0,1,1.2.1,5.86,5.86,0,0,1,4.6,4.1,9.61,9.61,0,0,1,.2,5.8,14.58,14.58,0,0,1-.7,1.9,1.27,1.27,0,0,1-.9.7h-2.1a.91.91,0,0,1-.7-.3c-.1-.1-.2-.3-.1-.7a9.77,9.77,0,0,0,.6-2.3,15,15,0,0,0,.2-2,3.23,3.23,0,0,0-.6-1.8,2.07,2.07,0,0,0-2.6-.8,5.51,5.51,0,0,0-1.4.9,7.12,7.12,0,0,0-1.1,1.7,23.94,23.94,0,0,0-1.3,3.8h0c-.4,1.8-.9,3.9-1.2,5.9-.2,1.4-.4,2.9-.5,4.1-.1,1.4-.2,2.9-.3,4.3l-.1,1.4c0,.4-.1.9-.1,1.3v1.1a.74.74,0,0,1-.8.8h-2.2a.74.74,0,0,1-.8-.8v-.4c0-.6-.1-1.2-.1-1.8v-.2c-.1-1.5-.2-2.8-.3-4.1a66,66,0,0,0-1.3-8.8c-.1-.4-.2-.9-.3-1.3v-.1c-.2-.9-.4-1.7-.6-2.5a25.58,25.58,0,0,0-.9-2.6,5.12,5.12,0,0,0-1.2-1.8,3.57,3.57,0,0,0-1.7-1.1,1.71,1.71,0,0,0-1.9.6,2.94,2.94,0,0,0-.9,2.2,10.6,10.6,0,0,0,.4,2.9c.1.4.2.7.3,1.1l.2.7-.1.2a.75.75,0,0,1-.7.5h-2.1a.87.87,0,0,1-.9-.6,15,15,0,0,1-1-3.2,12.19,12.19,0,0,1,0-2.7,11.63,11.63,0,0,1,.4-1.8,5.86,5.86,0,0,1,4.6-4.1,3.08,3.08,0,0,1,1-.1,2.79,2.79,0,0,1,1,.1,7.08,7.08,0,0,1,2.8,1.1,9.39,9.39,0,0,1,3.3,4,17.26,17.26,0,0,1,1.1,3.2l.9,3.9v.2c0-.2.1-.4.1-.6Z"/><path class="cls-1" d="M176,85.6a6.12,6.12,0,0,0,2.2,8.3,5.29,5.29,0,0,0,3.2.8,6,6,0,0,0,5-3,6.06,6.06,0,0,0-2.2-8.2,6.41,6.41,0,0,0-3-.8H181A5.68,5.68,0,0,0,176,85.6Z"/><path class="cls-1" d="M178.9,64.4Z"/><path class="cls-1" d="M162,99.3a50.73,50.73,0,0,1,19.7,11.4l32.6-32.6a95.57,95.57,0,0,0-40.4-23.3Zm15-32.6a.37.37,0,0,0,.1-.3c.3-.6.7-1.1,1-1.7a.83.83,0,0,1,.8-.5h0a4.33,4.33,0,0,1,.5.1,5.94,5.94,0,0,1,.8.4,9.83,9.83,0,0,1,1.5,1.2,4.91,4.91,0,0,1,1.3,2.7,15,15,0,0,1,.2,2.2c0,.7-.1,1.4-.1,2.2l-.1.7c0,.4-.1.7-.1,1.1a8.75,8.75,0,0,0,.3,2.4,9.25,9.25,0,0,0,.5,1,1.34,1.34,0,0,0,.7.6,8.43,8.43,0,0,1,3.5,2.1c.1.1.1.1.2.1a5.55,5.55,0,0,0,2.5-.3,7,7,0,0,0,1.9-1l.5-.4c.5-.3,1-.7,1.5-1a15.06,15.06,0,0,1,1.7-1,7.62,7.62,0,0,1,2-.6,5,5,0,0,1,3.2.4,6,6,0,0,1,1.1.6,2,2,0,0,1,.7.6l.4.4-1.7,2.9h-.4a1.49,1.49,0,0,1-.8-.3h-.1a5.36,5.36,0,0,0-1.1-.5,2.57,2.57,0,0,0-1.5.1,7.46,7.46,0,0,0-1.2.7,5.55,5.55,0,0,0-.8.6,14.11,14.11,0,0,1-4.4,2.3c-.3.1-.7.2-1.1.3h-.2a9.7,9.7,0,0,1-.1,7.3,10,10,0,0,1-9.1,6.4h-.3a12.31,12.31,0,0,1-2-.2,10.23,10.23,0,0,1-6.8-4.8,10.05,10.05,0,0,1,7.3-15.1,10.55,10.55,0,0,1-.5-1.9,13.53,13.53,0,0,1,0-4.5,8.62,8.62,0,0,0,.1-1.7,2.68,2.68,0,0,0-1.6-2.5h-.1a2.09,2.09,0,0,1-.6-.4l-.3-.3Z"/><path class="cls-1" d="M110.7,181.7A50.73,50.73,0,0,1,99.3,162L54.7,174A96.63,96.63,0,0,0,78,214.4Zm-35.8,9.2c-.6.3-1.2.7-1.8,1a1.07,1.07,0,0,1-.6.2c-.4,0-.6-.4-.8-.5a2.19,2.19,0,0,0-.3-.5l-.2-.4a5.74,5.74,0,0,0-.4-.7c-.3-.5-.5-.9-.8-1.4l-.1-.2c-.6-1-1.1-1.9-1.7-2.9-.7-1.2-1.4-2.5-2.1-3.7l-.6-1-.3-.6a.83.83,0,0,1,.3-1.1c.2-.1.3-.2.5-.3l1.1-.7c3-1.8,6.1-3.6,9.1-5.4l.1-.1a5.94,5.94,0,0,1,.8-.4l.2-.1.2.1c.4.2.5.5.7.8,0,.1.1.1.1.2a7.46,7.46,0,0,1,.7,1.2.77.77,0,0,1-.3,1.2c-.4.3-.9.5-1.3.8l-4.9,2.9,3.5.9,7.6,1.9a7.37,7.37,0,0,1,1.4.4l1.8-6.9.4-.1h.3c.8.2,1.5.4,2.2.6a.77.77,0,0,1,.6,1.1c-.3,1.2-.6,2.5-1,3.7l-.7,2.5h.1l4.3,1.1c1.8.4,3.5.9,5.3,1.3l.3.1c.3.1.6.1.8.4a1,1,0,0,1,0,.9l-.1.3c-.1.3-.1.5-.2.8v.2a4.33,4.33,0,0,1-.1.5c-.1.3-.2.8-.8.8h-.3l-1.7-.4L90.6,188c-.6-.2-1.3-.3-1.9-.5l-.8-.2c-.2.6-.3,1.2-.5,1.8l-1,4c0,.1,0,.2-.1.2l-.1.3-.1.1c-.2.1-.3.2-.5.2h-.5c-.7-.2-1.3-.3-1.9-.5s-.7-.5-.6-1.1.3-1.3.5-1.9l1-4c-1.8-.5-3.7-.9-5.5-1.4l-7.1-1.8.9,1.6c.4.8.9,1.5,1.3,2.3s.9,1.5,1.3,2.3l.2.4C75.6,190.2,75.4,190.6,74.9,190.9Z"/><path class="cls-1" d="M124.1,240.9a97.08,97.08,0,0,0,46.7,0l-12-44.6a51.6,51.6,0,0,1-22.8,0Zm36.1-22.3v.2c.1.7.3,1.5.4,2.2,0,.2.1.4-.1.6a.65.65,0,0,1-.5.2h-5.4a10.7,10.7,0,0,1,1.4,1.6,8.19,8.19,0,0,1,1.4,3.7,6.78,6.78,0,0,1-.8,4.2,8,8,0,0,1-3.7,3,14.59,14.59,0,0,1-5.5,1.1,9.15,9.15,0,0,1-1.6-.1,13.63,13.63,0,0,1-4.6-1.3,7.72,7.72,0,0,1-3.1-2.8,5.87,5.87,0,0,1-.7-4.3,7.8,7.8,0,0,1,1.4-3.2,10.7,10.7,0,0,1,1.4-1.6h-5l-.1-.2h0v.2h-.2c-.1,0-.4,0-.5-.2s-.1-.4-.1-.6v-.1l.5-2.4c.1-.5.2-.8.6-.6s.7,0,1.1,0c2.5,0,4.9-.1,7.4-.1h.7l.2.2a1.27,1.27,0,0,1,.1.6v.1a6.6,6.6,0,0,1-.1,1.4v.4a5.7,5.7,0,0,1-.1,1.3.89.89,0,0,1-.5.8l-.9.6a4.84,4.84,0,0,0-1.3,1.6,3.86,3.86,0,0,0-.3,3.6,4.11,4.11,0,0,0,1.8,1.9,8,8,0,0,0,3.2.9,8.44,8.44,0,0,0,3.9-.6,6.23,6.23,0,0,0,2.1-1.5,4,4,0,0,0,.9-2.5,3.58,3.58,0,0,0-.9-2.4,7.31,7.31,0,0,0-1.6-1.4c-.1-.1-.2-.1-.3-.2l-.4-.2v-.2c-.1-.7-.2-3.8-.2-4.2V218h1.4c2.6,0,5.1,0,7.7-.1h.3C160,217.8,160.1,218.2,160.2,218.6Zm-23.7-7.2h.3c1.5,0,2.9,0,4.1-.1h2.3a39.33,39.33,0,0,1,4.7-.1h10.3c.6,0,.7.4.7.8l.4,2.2c.1.4.1.6-.1.8a.65.65,0,0,1-.5.2H146c-1.2,0-2.3,0-3.5.1h-6.6a.4.4,0,0,1-.4-.2,1.09,1.09,0,0,1-.1-.5c.1-.7.3-1.3.4-2,0-.2.1-.4.1-.6v-.1A1.33,1.33,0,0,1,136.5,211.4Z"/><path class="cls-1" d="M140.4,221.6Z"/><path class="cls-1" d="M179.7,217.4a2.46,2.46,0,0,0-.4-1.1l-1.5-2.7-.7-1.2c-.3-.6-.6-1.1-.9-1.7l-.1-.1c-.3-.5-.6-1.1-.9-1.6a5.86,5.86,0,0,0-.1,2.3,14.36,14.36,0,0,0,3,8.2,5.5,5.5,0,0,1,.7.9c.1.1.3.2.4.3s.2.1.3-.1a.76.76,0,0,0,.2-.5,3.75,3.75,0,0,0,.1-1.1,2.22,2.22,0,0,0-.1-.9C179.8,217.9,179.7,217.7,179.7,217.4Z"/><path class="cls-1" d="M181.7,184.1A50.73,50.73,0,0,1,162,195.5l12,44.6a95.78,95.78,0,0,0,40.4-23.4Zm19.8,35.5a3,3,0,0,1-2.3,0,5,5,0,0,1-1.4-.8l-.3-.3a5.65,5.65,0,0,1,0,1.3,4.84,4.84,0,0,1-.3,1.8,4.11,4.11,0,0,1-.8,1.3,2.79,2.79,0,0,1-2,.8h-.1a3.53,3.53,0,0,1-1.4-.3,5.67,5.67,0,0,1-1.3-.8,9,9,0,0,1-.4,2.8,3.88,3.88,0,0,1-.6,1.1,2.51,2.51,0,0,1-2.1,1h0a4,4,0,0,1-2.6-1,3.92,3.92,0,0,1-.8-1,27.55,27.55,0,0,1-1.7-2.9c0-.1-.1-.2-.1-.3l-.3,1.2a2.8,2.8,0,0,1-1.6,1.6,2.77,2.77,0,0,1-.9.1,5.9,5.9,0,0,1-1.4-.2,4.72,4.72,0,0,1-1.8-1.2,13.94,13.94,0,0,1-3.4-4.8,24.35,24.35,0,0,1-1.9-7.5,28,28,0,0,1,0-2.9,14.5,14.5,0,0,1,.9-3.6v-.1a2.15,2.15,0,0,0-1.5-1,1.48,1.48,0,0,0-.7.1h-.2a.62.62,0,0,1-.6-.4l-1.1-2.1a1.27,1.27,0,0,1-.1-.6.78.78,0,0,1,.4-.4,4.83,4.83,0,0,1,4.9.6,2.65,2.65,0,0,0,.6.5,3.57,3.57,0,0,1,3.3-2.5c.4-.1.7.1,1,.5s.6.9.9,1.4l.4.7-.1.2a.63.63,0,0,1-.6.5h-.2a6.37,6.37,0,0,1-.7.2l-.6.3a1.45,1.45,0,0,0-.4,1.7,9.75,9.75,0,0,0,.5,1.1,16.54,16.54,0,0,1,1.5,2.5l.1.1c.2.3.3.5.5.8,1.1,1.8,2.1,3.6,3.2,5.4l2.6,4.4a18.58,18.58,0,0,1,1.1,1.9l1.1,1.9a6.6,6.6,0,0,0,0-2.8,23.27,23.27,0,0,0-.9-2.9c-.6-1.2-1.3-2.4-1.9-3.5l-.2-.4-3-5.1-1.2-2.1c-.3-.5-.6-1-.8-1.4l-.3-.6a.72.72,0,0,1,.2-1.1c.6-.4,1.3-.9,1.9-1.3l.1-.1a.75.75,0,0,1,1,.2c.3.5.7,1,1,1.5l10.1,15.8c0-.1.1-.2.1-.4a6.42,6.42,0,0,0-.4-3.6,17.12,17.12,0,0,0-1.5-3.1c-1.2-2.1-2.6-4.1-3.9-6.1l-.5-.7c-.6-.9-1.3-1.9-1.9-2.8l-.9-1.4a.52.52,0,0,1-.2-.4.74.74,0,0,1,.2-1.1c.7-.4,1.3-.8,2-1.2a.76.76,0,0,1,.4-.2.68.68,0,0,1,.6.4c.1.1.2.2.2.3l.1.1c3.6,5.1,7.2,10.3,10.8,15.4a3.45,3.45,0,0,0,.8.9c.1.1.3.2.4.3a.64.64,0,0,0,.6,0,2.19,2.19,0,0,1,.5-.3h.3l.2.1h0l.1.1v.1c.3.5.7.9,1,1.4a.77.77,0,0,1-.1,1.1C202.5,219.1,202.1,219.4,201.5,219.6Z"/><path class="cls-1" d="M213.6,174a2.82,2.82,0,0,0-1.5-.4,2.92,2.92,0,0,0-2.7,1.6,3.32,3.32,0,0,0-.3,2.4,3.17,3.17,0,0,0,1.5,1.9,2.93,2.93,0,0,0,1.6.4h0a3.15,3.15,0,0,0,2.7-1.6A3.38,3.38,0,0,0,213.6,174Z"/><path class="cls-1" d="M240.1,174l-44.6-12a50.73,50.73,0,0,1-11.4,19.7l32.6,32.6A96.48,96.48,0,0,0,240.1,174Zm-27,22.8a20.17,20.17,0,0,1-3.8-3.5,42,42,0,0,1-3.6-4.6c-.8-1.1-1.4-2.1-2.2-3a10.24,10.24,0,0,0-1.9-1.8,3,3,0,0,0-2.7-.4,2.26,2.26,0,0,0-1.4,1.3,4.84,4.84,0,0,0-.3,1.8v1.9h0a1.33,1.33,0,0,1-.3.9l-.3.4-.4-.2a.37.37,0,0,0-.3-.1l-.7-.4c-.5-.3-.9-.5-1.4-.8a1.21,1.21,0,0,1-.7-1.2v-.4a13.81,13.81,0,0,1,.3-2.5,6.47,6.47,0,0,1,2.8-4.3,7,7,0,0,1,5.8-.8,9,9,0,0,1,3.7,2.4,28.6,28.6,0,0,1,2.8,3.5l.7,1a19.52,19.52,0,0,0,1.7,2.3,35.26,35.26,0,0,0,3.6,3.9,9.74,9.74,0,0,0,2.4,1.5,4.19,4.19,0,0,0,1.5.4,3,3,0,0,0,2.2-.6,5.35,5.35,0,0,0,1.9-2.4,3.7,3.7,0,0,0-.9-3.7,5.26,5.26,0,0,0-1.4-1.1,15.43,15.43,0,0,0-4.3-1.7l-1.7-.3h-.1c-.3-.1-.6-.1-.9-.2a16.26,16.26,0,0,1-2.6-.7,2,2,0,0,1-.8-.4l-.1-.1c-.1,0-.1-.1-.2-.1a6.65,6.65,0,0,1-3.8-5.6,6.94,6.94,0,0,1,1.7-5,6.72,6.72,0,0,1,5-2.1,6.45,6.45,0,0,1,2,.3,6.55,6.55,0,0,1,3.9,3.4,6.71,6.71,0,0,1,.3,5.2,5.24,5.24,0,0,1-1.1,1.9,18,18,0,0,1,3.9,1.2,8.61,8.61,0,0,1,3.8,2.8,5.67,5.67,0,0,1,1.2,2.3,8.55,8.55,0,0,1-.1,5.7,7.66,7.66,0,0,1-4.5,4.8,8.29,8.29,0,0,1-3.4.7,7.27,7.27,0,0,1-2.5-.4A6.29,6.29,0,0,1,213.1,196.8Z"/><polygon class="cls-1" points="70 117.4 70 117.3 70 117.3 70 117.4"/><rect class="cls-1" x="145" y="15.9" width="4.8" height="26.6"/></g></svg>